<?xml version="1.0" standalone="no"?><!DOCTYPE svg PUBLIC "-//W3C//DTD SVG 1.1//EN" "http://www.w3.org/Graphics/SVG/1.1/DTD/svg11.dtd"><svg t="1556082970307" class="icon" style="" viewBox="0 0 1024 1024" version="1.1" xmlns="http://www.w3.org/2000/svg" p-id="3665" xmlns:xlink="http://www.w3.org/1999/xlink" width="200" height="200"><defs><style type="text/css"></style></defs><path d="M774.36 512L502.83 783.529c-16.662 16.662-16.662 43.677 0 60.34 16.662 16.662 43.678 16.662 60.34 0l301.699-301.7c16.662-16.661 16.662-43.677 0-60.339l-301.7-301.699c-16.661-16.662-43.677-16.662-60.339 0-16.662 16.663-16.662 43.678 0 60.34L774.36 512z" p-id="3666" fill="#515151"></path><path d="M474.36 512L202.83 783.529c-16.662 16.662-16.662 43.677 0 60.34 16.662 16.662 43.678 16.662 60.34 0l301.699-301.7c16.662-16.661 16.662-43.677 0-60.339l-301.7-301.699c-16.661-16.662-43.677-16.662-60.339 0-16.662 16.663-16.662 43.678 0 60.34L474.36 512z" p-id="3667" fill="#515151"></path></svg>